<?xml version="1.0" encoding="utf-8"?>
<!-- Svg Vector Icons : http://www.onlinewebfonts.com/icon -->
<!DOCTYPE svg PUBLIC "-//W3C//DTD SVG 1.1//EN" "http://www.w3.org/Graphics/SVG/1.1/DTD/svg11.dtd">
<svg version="1.1" xmlns="http://www.w3.org/2000/svg" xmlns:xlink="http://www.w3.org/1999/xlink" x="0px" y="0px" viewBox="0 0 256 256" enable-background="new 0 0 256 256" xml:space="preserve">
<metadata> Svg Vector Icons : http://www.onlinewebfonts.com/icon </metadata>
<g><g><path fill="#000000" d="M57.8,112.8l10.3-6.5c4.7,5.1,10.3,9,16.4,11.7l-2.7,11.8l18.6,4.3l2.7-11.8c6.6,0.3,13.4-0.8,19.9-3.3l6.4,10.3l16.2-10.1l-6.5-10.3c5.1-4.7,9.1-10.3,11.7-16.4l11.8,2.7l4.3-18.6l-11.8-2.7c0.2-6.6-0.9-13.4-3.4-19.9l10.4-6.4L152,31.4l-10.3,6.5c-4.7-5.1-10.3-9-16.4-11.7l2.7-11.8L109.4,10l-2.7,11.8c-6.6-0.3-13.4,0.8-19.8,3.3l-6.5-10.3L64.3,25l6.4,10.3c-5.1,4.7-9,10.3-11.7,16.4l-11.8-2.7l-4.3,18.6l11.8,2.7c-0.2,6.7,0.9,13.4,3.4,19.9l-10.3,6.4L57.8,112.8z M86.7,43c16.1-10,37.2-5.2,47.2,10.9c10,16,5.1,37.2-10.9,47.2c-16,10-37.2,5.1-47.2-10.9C65.8,74.2,70.7,53.1,86.7,43z"/><path fill="#000000" d="M206.9,129.3l6.3-0.8l-1.3-9.9l-6.3,0.8c-1.1-3.3-2.9-6.4-5.3-9.1l3.9-5l-7.9-6l-3.8,5c-3.3-1.6-6.7-2.5-10.1-2.7l-0.8-6.3l-9.9,1.3l0.8,6.3c-3.3,1.1-6.4,2.9-9.1,5.3l-5.1-3.9l-6,7.9l5.1,3.9c-1.6,3.2-2.5,6.7-2.7,10.2l-6.3,0.8l1.3,9.9l6.3-0.8c1.1,3.3,2.9,6.4,5.3,9.1l-3.9,5l7.9,6l3.9-5c3.2,1.6,6.6,2.5,10.1,2.7l0.8,6.3l9.8-1.3l-0.8-6.3c3.3-1.1,6.4-2.9,9.1-5.3l5,3.9l6-7.9l-5.1-3.8C205.8,136.2,206.7,132.7,206.9,129.3z M193,137.1c-5.2,6.8-14.8,8-21.6,2.9c-6.7-5.2-8-14.8-2.9-21.6c5.2-6.8,14.8-8.1,21.6-2.9C196.8,120.7,198.1,130.4,193,137.1z"/><path fill="#000000" d="M152.9,178.5l-19.4-8.1l-7.9-19.4l19.3-19.2c-9.7-1.4-19.8,1.5-27.3,8.9c-10.2,10.1-12.1,25.4-5.9,37.5L58,231.6l0,0c0,0,0,0-0.1,0c-1.5,1.5,0.4,5.9,4.2,9.7c3.8,3.8,8.2,5.7,9.7,4.2v0l53.8-53.3c12.1,6.3,27.3,4.5,37.5-5.6c7.5-7.4,10.4-17.6,9.1-27.2L152.9,178.5z"/></g></g>
</svg>